<?xml version="1.0" encoding="utf-8"?>
<!-- Generator: Adobe Illustrator 27.0.0, SVG Export Plug-In . SVG Version: 6.00 Build 0)  -->
<svg version="1.1" id="Layer_1" xmlns="http://www.w3.org/2000/svg" xmlns:xlink="http://www.w3.org/1999/xlink" x="0px" y="0px"
	 viewBox="0 0 268 136" style="enable-background:new 0 0 268 136;" xml:space="preserve">
<style type="text/css">
	.st0{opacity:0;fill:#FFFFFF;}
	.st1{fill:#618CC7;}
	.st2{opacity:0;}
	.st3{fill:#FFFFFF;}
	.st4{fill:url(#path4837_00000166650153113165948570000009148538672395535259_);}
	.st5{fill:#8F65D0;}
</style>
<rect class="st0" width="268" height="136"/>
<g>
	<path class="st1" d="M139.1,90c-1.4,0-2.5-0.4-3.3-1.2c-0.8-0.8-1.2-1.9-1.2-3.2c0-1.4,0.4-2.5,1.2-3.3c0.8-0.8,1.9-1.2,3.3-1.2
		c1.4,0,2.5,0.4,3.3,1.2c0.8,0.8,1.2,1.9,1.2,3.3c0,1.3-0.4,2.4-1.2,3.2C141.6,89.6,140.5,90,139.1,90z"/>
	<path class="st1" d="M169.8,90c-3,0-5.3-1-7.2-3c-1.8-2-2.7-4.7-2.7-8v-8.7c0-3.4,0.9-6.1,2.7-8.1c1.8-2,4.2-3,7.2-3
		c2.4,0,4.4,0.7,5.9,2c1.5,1.3,2.2,3.1,2.2,5.3l-1-1.1h1.1l-0.1-6.8v-8.6h4.9v39.4h-4.9v-5.7h-1l1-1.1c0,2.3-0.7,4.1-2.2,5.4
		C174.2,89.4,172.3,90,169.8,90z M171.4,85.8c2,0,3.6-0.6,4.8-1.9c1.2-1.3,1.7-3,1.7-5.2v-8.1c0-2.2-0.6-4-1.7-5.2
		c-1.2-1.3-2.7-1.9-4.8-1.9c-2.1,0-3.7,0.6-4.9,1.8c-1.2,1.2-1.8,3-1.8,5.3v8.1c0,2.3,0.6,4.1,1.8,5.3
		C167.8,85.2,169.4,85.8,171.4,85.8z"/>
	<path class="st1" d="M204,90c-2.3,0-4.4-0.5-6.1-1.4c-1.7-0.9-3.1-2.3-4.1-4c-1-1.7-1.4-3.7-1.4-6v-8.1c0-2.3,0.5-4.3,1.4-6
		c1-1.7,2.3-3,4.1-3.9c1.7-0.9,3.8-1.4,6.1-1.4c2.3,0,4.4,0.5,6.1,1.4c1.7,0.9,3.1,2.3,4.1,3.9c1,1.7,1.4,3.7,1.4,6v5.2h-18.5v2.9
		c0,2.3,0.6,4.1,1.8,5.4c1.2,1.2,2.9,1.9,5.1,1.9c1.9,0,3.4-0.3,4.5-1c1.2-0.7,1.9-1.7,2.1-3h4.9c-0.3,2.5-1.5,4.5-3.6,5.9
		C209.7,89.3,207.1,90,204,90z M210.8,72.6v-2c0-2.3-0.6-4.1-1.8-5.4c-1.2-1.3-2.9-1.9-5.1-1.9c-2.2,0-3.9,0.6-5.1,1.9
		c-1.2,1.3-1.8,3.1-1.8,5.4v1.6h14.1L210.8,72.6z"/>
	<path class="st1" d="M233.1,89.5l-9.9-29.7h5l6.6,20c0.4,1.2,0.8,2.3,1.1,3.4c0.3,1.1,0.6,2,0.7,2.6c0.2-0.6,0.4-1.5,0.8-2.6
		c0.3-1.1,0.7-2.2,1-3.4l6.4-20h4.9l-9.9,29.7H233.1z"/>
</g>
<g>
	<g class="st2">
		<rect x="13" y="3.1" class="st3" width="127.9" height="127.9"/>
		<path d="M140.9,3.1v127.9H13.1V3.1H140.9 M141,3H13v128h128V3L141,3z"/>
	</g>
	<g>
		
			<linearGradient id="path4837_00000052073709690196091730000014251582116659255426_" gradientUnits="userSpaceOnUse" x1="-1256.2603" y1="-2776.9675" x2="-1178.5172" y2="-2703.2024" gradientTransform="matrix(0.75 0 0 0.75 994.4073 2142.3418)">
			<stop  offset="0" style="stop-color:#D6ACF9"/>
			<stop  offset="1" style="stop-color:#9FE3F0"/>
		</linearGradient>
		
			<path id="path4837_00000110442023762890412830000002005018766219440575_" style="fill:url(#path4837_00000052073709690196091730000014251582116659255426_);" d="
			M29.4,6.5c-1,0-0.6,2.6,2.1,9.6c6.1,15.5,16.9,29.2,31.2,35.7c-12.7-4-18.4-9.2-25.6-13.6c-5.2-3.1-12.8-9.1-17.6-13.8
			c-7.3-7.2-7.1-1.9-4.6,4.2c4,9.7,14.5,16.6,22.3,21.2C25.9,46.3,13,32.7,13.5,37.4c0.3,2.9,4.5,9,11.1,14.5
			c4.4,3.7,9.8,7,15.4,8.8C28.4,58,21,51.7,19.8,52c-2,0.5-1.8,2.7,1.9,7.5c5.9,7.8,13,11.7,22.4,13c-4.9-0.1-8.9-0.9-11.7-1.5
			c-10.7-2.5-2.8,3.3,0.4,5.6c3.3,2.4,7.4,4.2,11.6,5.3c5,1.4,9.7,2.4,14.3,2.7c-8.3,0.6-18.2-0.3-19.1,1.2c-1.2,2,4.1,4.4,11.2,5.7
			c3.9,0.7,6,0.9,11.1,0.5c-5.7,1-8.4,2-8.9,2.8c-1.7,2.4,11.4,4.7,20.9,1.4C70,97.9,68.9,99,70,99.2c0.9,0.2,2.8-0.8,7.2-1.7
			c-11.6,4.6-3,5.7,3.4,4.1c-6.5,3.4,2,3.9,5.5,3.9c-4.2,1-7,1.6-8.3,2.5c-3.5,2.5,3.8,4.3,11.9,2.3c-9.4,3.8-8.8,4.8-2.1,6.6
			c3.6,1,7,0.3,10.2-0.1c-6.1,1.6,2.5,2.1,4.6,1.3c-3.4,1.9-8.4,1.1-8.9,2c-0.6,1.4,3.5,3.1,9,3.1c-4.7,1.7,3.7,2.3,5.5,2.1
			c-6,2.9,2.5,3.1,9.3,1.6c4.1-0.9,8.1-2.3,9.5-3.6c10.3-0.4,13.9-15.9,14.1-16.3c0.1-0.5-5.8-2.6-11.2-5.1
			c-4.5-2.1-9.1-5.4-12.5-8.4l-14.1-17.4c-3.1-4.8-6-9.8-8.9-14.7c-2.8-4.7-4.9-4.3-5.2-3.1c-4-3.8-11.1-6-19.6-11
			c-6.3-3.8-13.1-9.5-20.7-18C43.1,22.5,31.9,6.5,29.4,6.5z"/>
		<path id="path4797_00000153665292169574654090000009610625505638070163_" class="st5" d="M137.4,104.4c-2.1-0.9-4.8-1.7-7.5-3
			c-5.4-2.5-11-6.8-14.4-10.2C107,82.4,101,71.7,94.7,61c-1.7-2.9-3.1-3.9-4.3-4.1c-0.6-0.1-1.1,0.2-1.3,0.6
			c-0.1,0.1-0.1,0.3-0.2,0.4c-1.2-1-3-2.2-5-3.2c-2.4-1.2-4.9-2.2-6.6-1.9c-0.1,0-0.2,0.1-0.2,0.1c-0.1,0.1-0.1,0.2-0.1,0.2
			c0,0.1,0,0.2,0.1,0.2c0.1,0.1,0.1,0.2,0.2,0.3c0.2,0.2,0.5,0.6,0.9,0.9c0.4,0.4,1,0.8,1.7,1.3c-3.2-0.8-5.9-1.1-8.1-1.1
			c-2.7,0-4.6,0.4-5.6,1.2c-0.1,0.1-0.2,0.2-0.2,0.4c0,0.2,0,0.3,0.1,0.4c0.1,0.2,0.3,0.4,0.6,0.5c0.5,0.3,1.4,0.7,2.5,1.1
			c1.4,0.5,3.2,1.1,5.4,1.7c-0.3,0-0.6,0-0.9,0c-1.2,0.1-2,0.3-2.4,0.7c-0.2,0.2-0.4,0.5-0.3,0.8c0,0.3,0.2,0.6,0.3,0.8
			c0.4,0.5,1,0.9,1.9,1.3c2.3,1,5.8,1.9,8.3,2.5c-1.4,0.2-2.3,0.5-2.9,0.7c-0.5,0.2-0.8,0.4-0.9,0.8c0,0.2,0,0.4,0.1,0.6
			c0.1,0.2,0.2,0.3,0.4,0.4c0.6,0.5,1.7,0.9,3,1.3c1.7,0.5,3.7,0.9,5.6,1.1c-0.9,0.2-1.6,0.4-2.1,0.6c-0.5,0.2-0.8,0.4-1,0.7
			c-0.2,0.3-0.1,0.8,0.1,1.1c0.4,0.6,1.1,1,1.9,1.1c0.8,0.1,1.6,0.1,2.4,0c1.7-0.3,3.4-0.9,4.3-1.6c0.6-0.4,1.1-1,1.4-1.6
			c-0.6,0.3-1.2,0.6-1.8,1c-1.7,1.2-2.5,2.4-2.6,3.5c0,0.4,0,0.8,0.3,1.1s0.6,0.5,1,0.5c0.5,0.1,1.1-0.1,1.8-0.4
			c-0.2,0.4-0.3,0.8-0.3,1.1c0,0.3,0,0.6,0.2,0.9c0.2,0.2,0.4,0.4,0.7,0.5c0.5,0.1,1.2,0,1.9-0.4c0.5-0.2,1-0.5,1.5-0.9
			c-0.1,0.5,0,1.1,0,1.7c0.1,1,0.2,2.1,0.5,2.9c0.1,0.4,0.3,0.7,0.5,0.9c0.1,0.1,0.2,0.2,0.4,0.3c0.2,0,0.4,0,0.5-0.1
			c0.3-0.2,0.4-0.5,0.6-0.9c0.4,2.5,1.5,5.1,2.4,6.9c0.3,0.6,0.6,1.1,0.9,1.5c0.3,0.4,0.5,0.6,0.9,0.8c0.2,0,0.4,0,0.6-0.1
			c0,0,0.1-0.1,0.1-0.1c0.2,0.6,0.5,1.2,0.9,1.7c0.4,0.5,0.8,0.9,1.4,1.1c0.2,0.1,0.5,0.1,0.8,0.1c-0.3,0.3-0.5,0.5-0.7,0.8
			c-0.2,0.2-0.3,0.4-0.5,0.7c-0.1,0.2-0.2,0.5-0.1,0.7c0.1,0.2,0.3,0.4,0.6,0.5c0.3,0.1,0.6,0.1,1,0.1c0.5,0,1.1-0.1,1.9-0.2
			c-0.1,0.1-0.2,0.2-0.3,0.3c-0.4,0.3-0.6,0.6-0.7,0.9c0,0.2,0,0.3,0,0.5c0.1,0.1,0.2,0.2,0.3,0.3c0.2,0.1,0.5,0.2,0.8,0.3
			c0.5,0.2,1.2,0.2,1.9,0.3c-0.1,0.2-0.2,0.5-0.2,0.7c0,0.4,0.2,0.9,0.4,1.2c0.6,0.7,1.6,1.3,2.8,1.8c1.2,0.5,2.5,0.9,3.7,1.1
			c1.2,0.2,2.2,0.3,2.9,0.1c0.4-0.1,0.8-0.4,1-0.8c-0.4,0-0.8,0.1-1.2,0.1c-1.3,0.2-2.1,0.5-2.7,0.9c-0.3,0.2-0.4,0.5-0.5,0.8
			c0,0.3,0,0.6,0.2,0.8c0.3,0.5,0.9,0.8,1.6,1.1c0.6,0.2,1.4,0.4,2.2,0.4c-0.1,0.3-0.1,0.5-0.1,0.8c0,0.4,0.2,0.7,0.5,0.9
			c0.5,0.4,1.2,0.4,2,0.4c0.8-0.1,1.6-0.2,2.4-0.4c0.1,0,0.2,0,0.4-0.1c-0.4,0.3-0.7,0.6-0.8,0.9c-0.2,0.3-0.2,0.5-0.1,0.8
			c0.1,0.3,0.3,0.4,0.6,0.5c0.5,0.2,1.2,0.2,2,0c0.4-0.1,0.9-0.2,1.3-0.3c-0.1,0.1-0.1,0.2-0.1,0.3c-0.2,0.5-0.1,1,0.2,1.3
			c0.6,0.7,1.7,0.9,2.9,0.8l-0.4-0.3l0,0c0.1,0.5,0.2,1,0.5,1.4c0.2,0.3,0.6,0.6,0.9,0.7c0.7,0.2,1.5,0.2,1.9,0.1
			c0.5-0.1,0.7-0.1,0.7-0.1s-0.3,0-0.7-0.1c-0.4,0-1.1-0.1-1.7-0.4c-0.2-0.1-0.4-0.3-0.6-0.6c-0.2-0.3-0.3-0.7-0.3-1.2
			c0,0,0,0,0-0.3c-0.1,0-0.2,0-0.3,0c-1.1,0.1-2.1-0.2-2.4-0.6c-0.2-0.2-0.2-0.3-0.1-0.6c0.1-0.3,0.4-0.6,1-1.1l2.2-1.6l-2.5,1
			c-0.9,0.4-1.8,0.6-2.6,0.7c-0.7,0.1-1.3,0.1-1.6,0c-0.1,0-0.1-0.1-0.1-0.1c0,0,0-0.1,0.1-0.2c0.2-0.3,0.8-0.9,1.8-1.5
			c0.3-0.2,0.5-0.3,0.8-0.5c-0.3-0.1-0.6-0.2-1-0.2c-0.5,0-1.2,0.1-1.9,0.3c-0.8,0.2-1.6,0.3-2.3,0.4c-0.7,0.1-1.3,0-1.5-0.2
			c-0.1-0.1-0.2-0.2-0.2-0.4c0-0.2,0-0.5,0.2-0.9c0.1-0.2,0.1-0.3,0.2-0.5c-0.2,0-0.4,0-0.6,0c-0.9,0-1.8-0.2-2.4-0.4
			c-0.7-0.2-1.1-0.6-1.3-0.8c-0.1-0.1-0.1-0.2-0.1-0.3c0-0.1,0.1-0.2,0.2-0.3c0.3-0.3,1.1-0.6,2.3-0.7l-0.2-0.7
			c-0.4,0.1-1.4,0.1-2.5-0.1c-1.1-0.2-2.4-0.6-3.5-1c-1.1-0.5-2-1.1-2.5-1.6c-0.2-0.3-0.3-0.5-0.3-0.8c0-0.2,0.1-0.5,0.5-0.8
			c0.2-0.2,0.4-0.4,0.7-0.5c-0.3,0-0.6-0.1-0.9-0.1c-0.8-0.1-1.8-0.2-2.4-0.3c-0.3-0.1-0.5-0.2-0.6-0.2c0,0-0.1,0,0,0c0,0,0,0.1,0,0
			c0,0,0.1-0.2,0.5-0.5s0.9-0.7,1.6-1.2c0.6-0.4,1.1-0.8,1.7-1.1c-0.7,0.2-1.3,0.3-2,0.5c-1.6,0.3-2.7,0.5-3.4,0.5
			c-0.4,0-0.6,0-0.7,0s-0.1-0.1-0.1,0c0,0,0,0,0-0.1c0.1-0.1,0.2-0.3,0.4-0.5c0.3-0.4,0.9-0.9,1.5-1.5l1.3-1.2l-1.7,0.6
			c-0.6,0.2-1.1,0.2-1.5,0.1c-0.4-0.1-0.8-0.4-1.1-0.8c-0.6-0.8-1.1-2.1-1.4-3.4l-1.6-6l0.9,6.1c0.1,0.7,0.1,1.2,0.1,1.5
			c0,0.1-0.1,0.1,0,0.1c0,0,0.1,0,0.1,0c0,0-0.3-0.2-0.5-0.5c-0.3-0.3-0.6-0.8-0.9-1.4c-1.2-2.2-2.6-6-2.6-8.8l0-4.8l-0.7,4.8
			c-0.1,0.9-0.3,1.5-0.4,2c-0.1,0.4-0.3,0.6-0.3,0.6c0,0,0,0,0.1,0c0,0,0,0,0,0c-0.1-0.1-0.2-0.4-0.3-0.7c-0.2-0.7-0.4-1.7-0.5-2.7
			c-0.1-1,0-2,0.2-2.5l0.5-1.4l-1.1,1c-0.7,0.7-1.4,1.2-2.1,1.5c-0.6,0.3-1.2,0.4-1.4,0.3c-0.1,0-0.2-0.1-0.2-0.1
			c0-0.1-0.1-0.2-0.1-0.4c0-0.4,0.3-1.2,1-2.1l1.3-1.9L93,75.8c-1.1,0.9-2.1,1.2-2.6,1.1c-0.3,0-0.4-0.1-0.5-0.3
			c-0.1-0.1-0.2-0.3-0.1-0.6c0.1-0.7,0.7-1.9,2.3-3l-0.4-0.6c-0.8,0.6-2.4,1.2-4,1.5c-0.8,0.1-1.6,0.1-2.2,0
			c-0.6-0.1-1.1-0.4-1.4-0.8c-0.2-0.2-0.1-0.3-0.1-0.3c0-0.1,0.3-0.3,0.7-0.4c0.9-0.3,2.4-0.7,4.7-1.2l4.7-1l-4.8,0.3
			c-2,0.1-5.6-0.4-8.1-1.2c-1.3-0.4-2.3-0.8-2.8-1.2c-0.1-0.1-0.2-0.2-0.2-0.2c0,0,0,0,0,0c0,0,0.1-0.2,0.5-0.3
			c0.7-0.3,2.2-0.6,4.7-1c1.2-0.2,2.4-0.3,3.6-0.4c-1.2,0-2.4-0.1-3.6-0.3c-2-0.4-7.1-1.6-10.1-2.9c-0.8-0.3-1.3-0.7-1.6-1.1
			c-0.1-0.2-0.2-0.3-0.2-0.4s0-0.1,0.1-0.2c0.2-0.2,0.9-0.4,2-0.5c1.1-0.1,2.8,0,4.9,0.3l7.2,1l-7-1.7c-3.9-1-7.2-2-9.3-2.8
			c-1.1-0.4-1.9-0.8-2.3-1.1c-0.2-0.1-0.4-0.3-0.4-0.3c0,0,0,0,0,0.1c0,0,0,0.1,0,0.1c0.7-0.6,2.5-1,5.2-1c2.6,0,6.1,0.5,10.3,1.7
			l3.1,0.9l-2.8-1.6c-1.6-0.9-2.8-1.8-3.6-2.5c-0.4-0.4-0.7-0.7-0.9-0.8c-0.1-0.1-0.1-0.2-0.1-0.2c0,0,0,0,0,0.1c0,0,0,0.1-0.1,0.2
			c-0.1,0.1-0.2,0.1-0.2,0.1l0,0l0,0c1.4-0.2,3.9,0.6,6.2,1.8c2.3,1.2,4.5,2.7,5.5,3.7l1.2,1.2l-0.6-1.6c-0.1-0.3-0.1-0.5,0-0.7
			c0.1-0.2,0.3-0.3,0.7-0.3c0.7,0.1,2.1,0.9,3.7,3.7c6.3,10.7,12.4,21.5,21,30.3c3.4,3.5,9.1,7.8,14.6,10.4c2.7,1.3,5.4,2.2,7.5,3
			c1.1,0.5,2.9,1.6,3.7,1.8C141.6,107,138.8,105,137.4,104.4z"/>
		<path id="path4807_00000100341264234404668750000007897268705833958553_" class="st5" d="M88.4,58.8c1,1.1,1.8,2,2.5,2.9
			c0.6,0.8,0.9,1.5,0.9,1.5s-0.2-0.7-0.6-1.7c-0.5-1-1.2-2.1-2.3-3.2c-2.4-2.5-5.7-4.6-9.6-6.6c-2.9-1.4-6.1-3-9.5-5
			c-6.3-3.8-13-9.5-20.6-17.9C45.1,24.2,38.4,15,33.8,9.9c-1.1-1.3-2.1-2.3-2.9-2.9c-0.4-0.3-0.8-0.5-1.1-0.7
			c-0.2-0.1-0.3-0.1-0.5-0.1c-0.2,0-0.4,0.1-0.5,0.3c-0.2,0.3-0.3,0.7-0.3,1.1c0,0.5,0.1,1.1,0.3,1.9c0.4,1.6,1.1,3.8,2.3,6.8
			c5.5,14,14.8,26.5,27.1,33.7C50,46.6,43.6,41.7,37.4,38c-5.1-3.1-12.8-9.1-17.5-13.8c-1.8-1.8-3.2-2.9-4.3-3.3
			c-0.5-0.2-1-0.3-1.4-0.2s-0.7,0.4-0.9,0.8c-0.3,0.7-0.3,1.8,0,3.1s0.8,2.8,1.4,4.3c3.5,8.4,11.6,14.6,18.8,19.1
			c-4.4-2.1-8.8-5.2-12.3-7.7c-2.3-1.6-4.2-3-5.6-3.7c-0.7-0.3-1.2-0.6-1.7-0.4c-0.3,0.1-0.5,0.2-0.6,0.5c-0.1,0.2-0.1,0.5-0.1,0.9
			c0.1,1.6,1.3,3.8,3.2,6.5c1.9,2.6,4.6,5.5,7.9,8.3c2.7,2.2,5.7,4.3,8.9,6.1c-2.7-1.1-5.1-2.3-7-3.3c-1.7-0.9-3.1-1.8-4.1-2.4
			c-0.5-0.3-1-0.5-1.3-0.7c-0.4-0.2-0.6-0.3-1-0.2c-0.6,0.1-1,0.4-1.3,0.9c-0.3,0.4-0.3,1-0.1,1.7c0.3,1.3,1.3,3.1,3.2,5.5
			c4.8,6.3,10.4,10.1,17.3,12c-2.4-0.3-4.5-0.7-6.1-1.1c-2.7-0.6-4.2-0.8-5.1-0.5c-0.2,0.1-0.4,0.2-0.5,0.3
			c-0.1,0.2-0.2,0.4-0.2,0.6c0,0.4,0.2,0.8,0.5,1.1c1.1,1.5,3.9,3.5,5.5,4.7c3.3,2.4,7.5,4.2,11.7,5.3c3.4,0.9,6.7,1.7,9.9,2.2
			c-2.7,0.1-5.4,0-7.8,0.1c-1.8,0-3.4,0.1-4.6,0.2c-0.6,0.1-1.1,0.2-1.5,0.3c-0.4,0.1-0.7,0.3-0.9,0.6c-0.2,0.3-0.3,0.7-0.2,1
			c0.1,0.3,0.2,0.7,0.5,1c0.5,0.6,1.3,1.1,2.4,1.7c2.1,1,5.2,2,8.8,2.6c2.5,0.5,4.3,0.7,6.7,0.7c-0.8,0.2-1.4,0.4-2,0.6
			c-1.5,0.5-2.3,0.9-2.7,1.5l0,0l0,0c-0.1,0.2-0.2,0.5-0.2,0.7c0,0.2,0.1,0.5,0.3,0.7c0.3,0.4,0.8,0.7,1.5,1c1.4,0.5,3.4,1,5.8,1.2
			c4.8,0.4,11-0.1,15.9-2.3c1.2-0.5,2.3-1.2,3.3-1.9c-1.2,0.4-2.4,0.8-3.6,1.3c-2.9,1.1-4.8,2-5.8,2.7c-0.5,0.3-0.8,0.6-1,1
			c-0.1,0.2,0,0.5,0.1,0.6s0.3,0.2,0.5,0.2l0,0l0,0c0.6,0.1,1.3-0.1,2.5-0.5c0.4-0.1,0.8-0.2,1.2-0.4c-0.9,0.5-1.6,0.9-2,1.4
			c-0.4,0.4-0.6,0.8-0.6,1.2c0.1,0.4,0.4,0.7,0.9,0.9c0.9,0.4,2.2,0.5,3.8,0.4c1,0,2-0.1,3-0.3c-0.1,0-0.1,0.1-0.2,0.1
			c-0.4,0.4-0.7,0.7-0.7,1.1c0,0.4,0.2,0.8,0.5,1s0.7,0.4,1.2,0.6c1.1,0.3,2.5,0.5,3.9,0.6c-2.7,0.6-4.6,1.1-5.7,1.9
			c-0.5,0.3-0.8,0.7-1,1c-0.2,0.4-0.1,0.8,0.1,1.1c0.4,0.7,1.3,1,2.6,1.3c1.8,0.4,4.3,0.5,7.1,0.1c-0.9,0.4-1.6,0.7-2.2,1.1
			c-1.2,0.7-1.9,1.2-2,1.9c-0.1,0.4,0.1,0.7,0.3,1c0.2,0.3,0.6,0.5,1,0.7c0.9,0.4,2.2,0.8,3.8,1.3c2.8,0.7,5.4,0.6,7.9,0.2
			c0,0.1-0.1,0.2-0.1,0.3c0,0.2,0.1,0.4,0.2,0.5c0.1,0.1,0.2,0.2,0.4,0.2c0.3,0.1,0.7,0.2,1.1,0.2c0.6,0.1,1.3,0.1,2.1,0.1
			c-0.8,0.1-1.5,0.2-2.2,0.3c-0.9,0.1-1.6,0.1-2.2,0.2c-0.3,0-0.6,0.1-0.8,0.2c-0.2,0.1-0.4,0.2-0.6,0.5c-0.1,0.3-0.1,0.5,0,0.8
			c0.1,0.3,0.3,0.5,0.5,0.7c0.4,0.4,1.1,0.8,2,1.1c1.4,0.5,3.3,0.9,5.5,1c0,0,0,0,0,0c-0.1,0.1-0.3,0.2-0.3,0.4
			c-0.1,0.2,0,0.4,0,0.5c0.2,0.3,0.4,0.4,0.8,0.6c0.3,0.1,0.7,0.2,1.2,0.3c1.2,0.2,2.6,0.3,3.8,0.4c-0.3,0.2-0.5,0.4-0.6,0.6
			c-0.2,0.2-0.3,0.4-0.3,0.7c0,0.3,0.2,0.5,0.4,0.6c0.4,0.3,0.9,0.4,1.7,0.5c0.7,0.1,1.6,0.1,2.6,0.1c2.5-0.1,4.9-0.4,7.2-1l0,0
			c2.3-0.5,4.1-1.1,5.8-1.8l0,0c2.5-1,3.6-2.1,3.6-2.1s-1.2,1-3.7,1.9l0,0c-1.7,0.6-3.5,1-5.8,1.5l0,0c-2.2,0.4-4.6,0.8-7.1,0.8
			c-1,0-1.8,0-2.5-0.1c-0.7-0.1-1.1-0.2-1.3-0.4c-0.1-0.1-0.1-0.1-0.1-0.1c0,0,0-0.1,0.1-0.2c0.2-0.2,0.8-0.6,1.7-1.1l2-0.9
			l-2.2,0.3c-0.8,0.1-3.4,0-5.1-0.3c-0.4-0.1-0.8-0.2-1-0.3c-0.3-0.1-0.4-0.2-0.4-0.2c0,0,0,0.1,0,0.1c0,0,0,0,0.1-0.1
			c0.2-0.1,0.5-0.3,1.1-0.5l1.8-0.7l-2,0c-2.7,0-5.1-0.4-6.7-1c-0.8-0.3-1.4-0.6-1.7-0.9c-0.2-0.1-0.3-0.3-0.3-0.4s0-0.2,0-0.3
			c0,0,0,0,0.2-0.1c0.1-0.1,0.4-0.1,0.6-0.1c0.6-0.1,1.3-0.1,2.2-0.2c1.8-0.1,3.9-0.4,5.7-1.4l3.9-2.2l-4.2,1.6
			c-0.5,0.2-1.4,0.3-2.4,0.4c-1,0-2.1,0-2.9-0.1c-0.4,0-0.7-0.1-0.9-0.2c-0.1,0-0.2-0.1-0.2-0.1c0,0,0,0,0,0.1c0,0.1,0,0.1,0,0
			s0.1-0.1,0.3-0.2c0.3-0.1,0.8-0.3,1.6-0.5l5.7-1.5l-5.9,0.8c-3.2,0.5-6.6,1.1-10.1,0.1c-1.6-0.4-2.9-0.8-3.7-1.2
			c-0.4-0.2-0.7-0.4-0.8-0.5s-0.2-0.2-0.1-0.4c0-0.2,0.5-0.8,1.7-1.4c1.1-0.6,2.9-1.4,5.2-2.3l4.8-1.9l-5,1.2c-4,1-7.8,1-10.2,0.5
			c-1.2-0.2-1.9-0.7-2.1-1c-0.1-0.2-0.1-0.3,0-0.5c0.1-0.2,0.3-0.5,0.7-0.8c1.1-0.8,3.9-1.4,8.1-2.4c1.4-0.3,2.9-0.7,4.3-1
			c-1.4,0.2-2.9,0.3-4.4,0.3c-1.7,0-4.8-0.1-6.4-0.7c-0.4-0.1-0.7-0.3-0.9-0.4c-0.2-0.1-0.2-0.2-0.2-0.4c0-0.1,0.1-0.4,0.5-0.7
			c0.4-0.3,0.9-0.7,1.7-1.1l2.7-1.4l-2.9,0.7c-1.6,0.4-3.3,0.6-4.8,0.7s-2.8-0.1-3.4-0.4c-0.3-0.1-0.4-0.3-0.4-0.4
			c0-0.1,0-0.3,0.4-0.6c0.6-0.6,2.3-1.6,5.2-2.7c1.2-0.5,2.3-0.9,3.5-1.2c-1.2,0.1-2.5,0.3-3.7,0.6c-2.2,0.4-3.8,0.9-4.9,1.2
			c-1.1,0.3-1.8,0.5-2.1,0.4c-0.1,0-0.2-0.1-0.2-0.1s0,0.1,0,0.1c0,0,0.2-0.3,0.7-0.6c0.9-0.6,2.8-1.5,5.6-2.6L76,95.1
			c-4.7,2.1-10.8,2.6-15.5,2.3c-2.3-0.2-4.3-0.6-5.6-1.1c-0.6-0.3-1.1-0.5-1.3-0.8c-0.1-0.1-0.1-0.2-0.1-0.3c0-0.1,0-0.1,0.1-0.2
			c0.2-0.3,0.9-0.7,2.3-1.2c1.4-0.5,3.5-1,6.4-1.5l7.4-1.3l-7.5,0.6c-5.1,0.4-7.2,0.2-11-0.5c-3.5-0.6-6.6-1.6-8.6-2.5
			c-1-0.5-1.8-1-2.1-1.5c-0.2-0.2-0.3-0.4-0.3-0.6c0-0.2,0-0.3,0.1-0.5c0,0,0.2-0.2,0.5-0.3c0.3-0.1,0.8-0.2,1.4-0.3
			c1.1-0.1,2.7-0.2,4.5-0.2c3.6,0,8.2,0,12.3-0.3c2.1-0.1,4.1-0.4,6.2-0.7c-2.1,0.2-4.1,0.2-6.2,0c-4.6-0.3-9.3-1.3-14.3-2.7
			c-4.2-1.1-8.3-2.9-11.5-5.2c-1.6-1.2-4.4-3.2-5.3-4.5c-0.2-0.3-0.3-0.6-0.3-0.7c0-0.1,0-0.1,0-0.1c0,0,0.1-0.1,0.2-0.1
			c0.5-0.2,2.1-0.1,4.7,0.5c2.8,0.7,6.7,1.4,11.7,1.5c2.5,0.1,5,0,7.4-0.3c-2.5,0-4.9-0.1-7.4-0.4c-9.3-1.3-16.3-5.2-22.2-12.8
			c-1.8-2.4-2.8-4.1-3.1-5.3c-0.1-0.6-0.1-0.9,0.1-1.2c0.1-0.2,0.4-0.4,0.9-0.5c0,0,0.2,0,0.5,0.2c0.3,0.1,0.7,0.4,1.3,0.7
			c1,0.6,2.4,1.4,4.2,2.4c3.5,1.9,8.2,4.2,14,5.6l9,2.2L40,60.4c-5.5-1.8-10.8-5.1-15.2-8.8c-3.3-2.7-5.9-5.6-7.8-8.2
			c-1.9-2.6-3-4.8-3.1-6.1c0-0.3,0-0.4,0-0.5c0-0.1,0-0.1,0.1-0.1c0.1,0,0.6,0.1,1.3,0.4c1.3,0.6,3.2,2,5.5,3.6
			c4.6,3.3,10.7,7.6,16.5,9.4c0.8,0.2,1.7,0.5,2.5,0.6c-0.7-0.4-1.5-0.8-2.2-1.3c-7.8-4.5-18.2-11.4-22.1-21c-0.6-1.5-1.1-3-1.4-4.2
			c-0.3-1.2-0.3-2.2-0.1-2.6c0.1-0.2,0.2-0.3,0.4-0.4c0.2,0,0.5,0,0.9,0.2c0.9,0.4,2.2,1.4,4,3.2c4.8,4.7,12.5,10.7,17.7,13.9
			C44.2,42.9,52,49,62.7,52.2c1.7,0.5,3.4,0.9,5.1,1.2c-1.6-0.5-3.3-1.2-4.8-1.9C48.7,45,38,31.4,31.9,16c-1.2-3-1.9-5.2-2.3-6.7
			c-0.2-0.8-0.3-1.3-0.3-1.7s0.1-0.6,0.1-0.7c0,0,0,0,0,0c0,0,0.1,0,0.2,0c0.2,0.1,0.5,0.3,0.9,0.5c0.7,0.6,1.7,1.6,2.8,2.9
			c4.5,5.1,11.2,14.3,15.3,18.9c7.6,8.5,14.4,14.3,20.7,18.1c3.5,2.1,6.7,3.7,9.5,5.1C82.8,54.3,86,56.4,88.4,58.8L88.4,58.8z"/>
		<path id="path4814_00000008846658947637959000000002656766840971361432_" class="st5" d="M59.9,54.7c0.2,0,0.4,0,0.6,0
			c1.2,0.1,2.4,0.2,3.3,0.2s1.5,0.1,1.5,0.1s-0.6-0.2-1.4-0.4c-0.9-0.2-2.1-0.5-3.3-0.6c-0.2,0-0.4,0-0.7,0c-0.4,0-0.8,0-1,0.3
			c-0.1,0.1-0.1,0.4-0.1,0.5s0.1,0.3,0.3,0.5c0.2,0.2,0.4,0.4,0.7,0.7c-1.4-0.5-2.5-0.9-3.3-1c-0.7-0.1-1.3-0.2-1.7-0.1
			c-0.4,0.1-0.8,0.2-1,0.6c-0.1,0.3-0.1,0.8,0.1,1.2c0.2,0.4,0.5,0.9,1.1,1.4c0.7,0.7,1.8,1.5,3.3,2.4c-1-0.2-1.9-0.5-2.7-0.9
			c-2.4-1.1-4.1-1.6-5.1-1.5c-0.5,0-1,0.2-1.3,0.5c-0.3,0.3-0.3,0.8-0.3,1.2c0.1,0.9,0.7,1.9,1.5,3c0.8,1.1,1.9,2.3,3,3.3
			c3,2.8,6.7,4.6,10.2,5.9c-2.4-0.5-4.9-1.1-7.7-1.2c-0.7,0-1.2,0-1.7,0.2c-0.4,0.2-0.8,0.4-1,0.8c-0.4,0.7-0.1,1.5,0.5,2.4
			c1.2,1.7,3.7,3.6,6.9,4.8c5.6,2.1,9.1,2.5,12.9,2.6c-1.9,0.2-3.4,0.3-4.7,0.4c-1.1,0.1-2,0.1-2.7,0.3c-0.7,0.1-1.2,0.3-1.5,0.7
			c-0.2,0.3-0.3,0.8-0.1,1.1c0.1,0.4,0.4,0.7,0.8,1c0.7,0.6,1.8,1.1,3.2,1.6c2.3,0.7,5.2,1.2,7.9,1.1c-0.4,0.2-0.7,0.5-0.9,0.7
			c-0.5,0.5-0.7,1-0.5,1.5c0.2,0.5,0.7,0.8,1.2,1c0.6,0.2,1.3,0.3,2.1,0.4c3.3,0.2,8.3-0.7,10.7-3.4c0.5-0.5,0.8-1.1,1.1-1.7
			c-0.5,0.4-1.1,0.8-1.6,1.2c-1.1,0.9-1.7,1.6-2,2.2c-0.1,0.3-0.2,0.6-0.2,0.9c0.1,0.3,0.3,0.5,0.5,0.6c0.5,0.2,1.1,0.2,1.8,0.1
			c-0.5,0.4-1,0.8-1.4,1.1c-0.9,0.8-1.4,1.4-1.5,2.1c0,0.3,0.1,0.7,0.4,0.9c0.3,0.2,0.7,0.3,1.2,0.4c0.5,0.1,1.2,0.1,2,0.1
			c-1.3,0.6-2.1,1.1-2.6,1.6c-0.4,0.4-0.5,0.8-0.4,1.3c0.1,0.4,0.5,0.7,0.9,0.9c0.9,0.4,2.2,0.7,3.8,0.7c1,0,2,0,3.1-0.1
			c-0.2,0.1-0.5,0.3-0.7,0.4c-0.3,0.2-0.6,0.4-0.8,0.7c-0.2,0.2-0.3,0.4-0.3,0.7c0,0.3,0.2,0.5,0.4,0.7c0.2,0.1,0.5,0.2,0.9,0.2
			c0.1,0,0.3,0,0.4,0c-0.5,0.3-1,0.5-1.3,0.8c-0.4,0.3-0.7,0.6-0.9,0.9c-0.2,0.3-0.2,0.7,0,1c0.2,0.3,0.5,0.5,0.8,0.7
			c0.4,0.2,0.9,0.3,1.5,0.5c0.9,0.2,2,0.4,3.5,0.5c-0.2,0.1-0.4,0.2-0.5,0.3c-0.5,0.3-0.8,0.6-0.9,1c-0.1,0.4,0.1,0.8,0.4,1.1
			c0.3,0.3,0.7,0.6,1.2,0.8c2.6,1.3,4.1,1.9,8.3,1.9c-0.1,0.1-0.2,0.1-0.3,0.2c-0.6,0.3-0.9,0.7-1,1.1c-0.1,0.4,0.2,0.9,0.5,1.1
			c0.4,0.3,0.8,0.5,1.4,0.8c1.8,0.7,4.5,1.2,6.4,1.4c-0.2,0.1-0.5,0.3-0.6,0.4c-0.4,0.4-0.7,0.8-0.7,1.2c0,0.4,0.3,0.8,0.6,1.1
			s0.8,0.5,1.4,0.8c1.8,0.7,4.4,1,6.6,0.8c0,0.1-0.1,0.1-0.1,0.2c-0.1,0.2,0,0.4,0.1,0.5c0.2,0.3,0.5,0.4,0.9,0.5
			c0.4,0.1,0.8,0.1,1.4,0.1c2.1,0,4.1-0.3,5.7-0.7c1.1-0.3,1.9-0.5,2.6-0.9c1.1-0.5,1.6-1.1,1.6-1.1s-0.5,0.5-1.6,0.9
			c-0.8,0.2-1.6,0.4-2.6,0.6c-1.7,0.3-3.6,0.5-5.6,0.5c-0.5,0-1,0-1.3-0.1c-0.3-0.1-0.5-0.2-0.4-0.2c0,0,0,0.1,0,0.1s0-0.1,0.1-0.1
			c0.2-0.2,0.6-0.4,1.2-0.7l4.4-2l-4.7,1.4c-2.3,0.7-5.9,0.4-8-0.4c-0.5-0.2-0.9-0.4-1.2-0.6s-0.4-0.4-0.4-0.6
			c0-0.2,0.1-0.4,0.4-0.7c0.3-0.3,0.9-0.6,1.8-0.9l1.8-0.7h-1.9c-1.7,0-5.5-0.6-7.6-1.4c-0.5-0.2-1-0.4-1.2-0.7
			c-0.3-0.2-0.3-0.3-0.3-0.4c0-0.1,0.2-0.3,0.7-0.6c0.5-0.3,1.3-0.6,2.4-0.9l3.1-0.8l-3.2,0.1c-5.9,0.3-7.3-0.2-10.3-1.8
			c-0.4-0.2-0.8-0.5-1-0.7c-0.2-0.2-0.2-0.3-0.2-0.5c0-0.1,0.2-0.3,0.6-0.6c0.4-0.2,1-0.5,1.8-0.7c0.8-0.2,1.6-0.4,2.4-0.5
			c-0.8,0-1.7-0.1-2.5-0.2c-2.1-0.2-3.8-0.4-4.9-0.7c-0.6-0.1-1-0.3-1.3-0.4c-0.3-0.1-0.5-0.3-0.5-0.4c0-0.1-0.1-0.1,0-0.3
			c0.1-0.2,0.3-0.4,0.7-0.6c0.7-0.5,2-1.1,3.7-1.9l4.4-1.9l-4.6,1.2c-1.4,0.4-2.4,0.5-3,0.5c-0.3,0-0.5-0.1-0.6-0.1s0,0,0,0
			c0,0,0-0.1,0.2-0.3c0.1-0.2,0.4-0.3,0.6-0.6c0.6-0.4,1.4-0.9,2.6-1.4l3.1-1.3l-3.3,0.7c-1.8,0.4-3.6,0.5-5.1,0.5
			c-1.6,0-2.9-0.3-3.5-0.6c-0.3-0.2-0.5-0.4-0.5-0.5s0-0.3,0.3-0.6c0.5-0.6,2-1.4,4.6-2.4l3.1-1.1L91.6,95c-2,0.3-3.5,0.3-4.3,0.2
			c-0.4-0.1-0.7-0.2-0.9-0.3c-0.1-0.1-0.2-0.1-0.1-0.3c0-0.3,0.4-0.9,1.2-1.6s2-1.6,3.5-2.6l5.5-3.7l-5.9,3.1
			c-0.8,0.4-1.6,0.7-2.3,0.9c-0.7,0.1-1.2,0.1-1.4,0c-0.1,0-0.1-0.1-0.1-0.1c0-0.1,0-0.2,0.1-0.4c0.2-0.4,0.8-1.1,1.9-2l-0.5-0.5
			c-2.1,2.4-7,3.4-10.1,3.1c-0.8-0.1-1.5-0.2-2-0.4c-0.5-0.2-0.8-0.4-0.8-0.6c-0.1-0.2,0-0.4,0.3-0.8s1.1-0.9,2.1-1.4l2-1l-2.2,0.3
			c-3.1,0.5-6.7,0-9.3-0.9c-1.3-0.4-2.4-1-3-1.5c-0.3-0.3-0.5-0.5-0.6-0.7s-0.1-0.3,0.1-0.5c0.1-0.1,0.4-0.3,1-0.4
			c0.6-0.1,1.5-0.2,2.6-0.2c2.2-0.1,5.3-0.3,9.2-1.1c1-0.2,2-0.4,3-0.7c-1,0-2,0-3.1,0c-5.9,0-9.5,0.3-17.1-2.6
			c-3-1.1-5.5-3-6.5-4.5c-0.5-0.7-0.6-1.3-0.4-1.7c0.1-0.2,0.2-0.3,0.6-0.4c0.3-0.1,0.8-0.2,1.4-0.1c4.4,0.2,7.8,1.5,11.9,1.8
			c0.9,0.1,1.9,0.1,2.8,0.1c-0.9-0.3-1.8-0.5-2.7-0.8c-4.3-1.3-9.8-3.3-13.9-7.1c-1.1-1-2.1-2.2-2.9-3.2c-0.8-1.1-1.3-2.1-1.4-2.7
			c0-0.3,0-0.5,0.1-0.6c0.1-0.1,0.3-0.2,0.7-0.2c0.8,0,2.4,0.4,4.8,1.5c1.6,0.7,3.5,1,5.4,1.5l3.1,0.8l-2.9-1.4
			c-2.7-1.4-4.5-2.6-5.4-3.5c-0.5-0.5-0.8-0.9-0.9-1.2c-0.1-0.3-0.1-0.5-0.1-0.6l0,0l0,0c0-0.1,0.1-0.1,0.4-0.2c0.3,0,0.8,0,1.5,0.1
			c1.3,0.3,3.3,1,6.1,2.2l3.9,1.8l-3.6-2.4c-1.7-1.1-2.7-1.9-3-2.3c-0.1-0.1-0.1-0.2-0.1-0.2c0,0,0,0.1,0,0.1
			C59.4,54.8,59.5,54.7,59.9,54.7L59.9,54.7z"/>
	</g>
</g>
<g>
</g>
<g>
</g>
<g>
</g>
<g>
</g>
<g>
</g>
<g>
</g>
<g>
</g>
<g>
</g>
<g>
</g>
<g>
</g>
<g>
</g>
<g>
</g>
<g>
</g>
<g>
</g>
<g>
</g>
</svg>
